<mxfile host="app.diagrams.net" agent="Mozilla/5.0 (Windows NT 10.0; Win64; x64) AppleWebKit/537.36 (KHTML, like Gecko) Chrome/138.0.0.0 Safari/537.36" version="28.0.4">
  <diagram name="Page-1" id="vsjgLQwmqed2psNZYAjL">
    <mxGraphModel dx="2525" dy="1013" grid="1" gridSize="10" guides="1" tooltips="1" connect="1" arrows="1" fold="1" page="1" pageScale="1" pageWidth="850" pageHeight="1100" math="0" shadow="0">
      <root>
        <mxCell id="0" />
        <mxCell id="1" parent="0" />
        <mxCell id="lJtKsZQsu0vlG41G_ERD-55" value="" style="rounded=0;whiteSpace=wrap;html=1;strokeWidth=11;movable=1;resizable=1;rotatable=1;deletable=1;editable=1;locked=0;connectable=1;" vertex="1" parent="1">
          <mxGeometry x="-560" y="10" width="1330" height="800" as="geometry" />
        </mxCell>
        <mxCell id="q2qVyUIZ0IaHbk6gNvJJ-5" value="MENGELOLA PRODUK" style="ellipse;whiteSpace=wrap;html=1;" parent="1" vertex="1">
          <mxGeometry x="-110" y="150" width="160" height="80" as="geometry" />
        </mxCell>
        <mxCell id="q2qVyUIZ0IaHbk6gNvJJ-7" value="MENAMBAHKAN KATEGORI BARU" style="ellipse;whiteSpace=wrap;html=1;" parent="1" vertex="1">
          <mxGeometry x="170" y="30" width="145" height="70" as="geometry" />
        </mxCell>
        <mxCell id="JiwREditaWVhdC1sXxD9-1" value="&lt;span style=&quot;font-size: 11px;&quot;&gt;MENGELOLA LAPORAN&lt;/span&gt;" style="ellipse;whiteSpace=wrap;html=1;" parent="1" vertex="1">
          <mxGeometry x="-100" y="310" width="187.5" height="90" as="geometry" />
        </mxCell>
        <mxCell id="JiwREditaWVhdC1sXxD9-2" value="MENGELOLA DATA AKUN" style="ellipse;whiteSpace=wrap;html=1;" parent="1" vertex="1">
          <mxGeometry x="-110" y="480" width="220" height="75" as="geometry" />
        </mxCell>
        <mxCell id="lJtKsZQsu0vlG41G_ERD-2" value="&lt;font style=&quot;font-size: 18px;&quot;&gt;ADMIN&lt;/font&gt;" style="shape=umlActor;verticalLabelPosition=bottom;verticalAlign=top;html=1;outlineConnect=0;" vertex="1" parent="1">
          <mxGeometry x="-490" y="332.5" width="75" height="125" as="geometry" />
        </mxCell>
        <mxCell id="lJtKsZQsu0vlG41G_ERD-14" value="&lt;font style=&quot;font-size: 30px;&quot;&gt;LOGIN&lt;/font&gt;" style="ellipse;whiteSpace=wrap;html=1;" vertex="1" parent="1">
          <mxGeometry x="-351.25" y="350" width="161.25" height="90" as="geometry" />
        </mxCell>
        <mxCell id="lJtKsZQsu0vlG41G_ERD-16" value="&lt;font style=&quot;font-size: 13px;&quot;&gt;&amp;lt;&amp;lt;include&amp;gt;&amp;gt;&lt;/font&gt;" style="endArrow=open;endSize=12;dashed=1;html=1;rounded=0;exitX=0.5;exitY=0;exitDx=0;exitDy=0;entryX=0;entryY=1;entryDx=0;entryDy=0;" edge="1" parent="1" source="lJtKsZQsu0vlG41G_ERD-14" target="q2qVyUIZ0IaHbk6gNvJJ-5">
          <mxGeometry width="160" relative="1" as="geometry">
            <mxPoint x="380" y="330" as="sourcePoint" />
            <mxPoint x="540" y="330" as="targetPoint" />
          </mxGeometry>
        </mxCell>
        <mxCell id="lJtKsZQsu0vlG41G_ERD-17" value="&lt;font style=&quot;font-size: 13px;&quot;&gt;&amp;lt;&amp;lt;include&amp;gt;&amp;gt;&lt;/font&gt;" style="endArrow=open;endSize=12;dashed=1;html=1;rounded=0;exitX=0.96;exitY=0.771;exitDx=0;exitDy=0;entryX=0.083;entryY=0.271;entryDx=0;entryDy=0;exitPerimeter=0;entryPerimeter=0;" edge="1" parent="1" source="lJtKsZQsu0vlG41G_ERD-14" target="JiwREditaWVhdC1sXxD9-2">
          <mxGeometry x="0.1717" y="3" width="160" relative="1" as="geometry">
            <mxPoint x="260" y="772" as="sourcePoint" />
            <mxPoint x="379" y="670" as="targetPoint" />
            <mxPoint as="offset" />
          </mxGeometry>
        </mxCell>
        <mxCell id="lJtKsZQsu0vlG41G_ERD-19" value="LOGOUT" style="ellipse;whiteSpace=wrap;html=1;" vertex="1" parent="1">
          <mxGeometry x="-98.75" y="630" width="197.5" height="70" as="geometry" />
        </mxCell>
        <mxCell id="lJtKsZQsu0vlG41G_ERD-20" value="&lt;font style=&quot;font-size: 13px;&quot;&gt;&amp;lt;&amp;lt;include&amp;gt;&amp;gt;&lt;/font&gt;" style="endArrow=open;endSize=12;dashed=1;html=1;rounded=0;exitX=0.5;exitY=1;exitDx=0;exitDy=0;entryX=0.216;entryY=0.035;entryDx=0;entryDy=0;entryPerimeter=0;" edge="1" parent="1" source="lJtKsZQsu0vlG41G_ERD-14" target="lJtKsZQsu0vlG41G_ERD-19">
          <mxGeometry width="160" relative="1" as="geometry">
            <mxPoint x="230" y="650" as="sourcePoint" />
            <mxPoint x="407" y="731" as="targetPoint" />
          </mxGeometry>
        </mxCell>
        <mxCell id="lJtKsZQsu0vlG41G_ERD-21" value="&lt;span style=&quot;font-size: 13px;&quot;&gt;&amp;lt;&amp;lt;include&amp;gt;&amp;gt;&lt;/span&gt;" style="endArrow=open;endSize=12;dashed=1;html=1;rounded=0;exitX=1;exitY=0;exitDx=0;exitDy=0;entryX=0.061;entryY=0.872;entryDx=0;entryDy=0;entryPerimeter=0;" edge="1" parent="1" source="q2qVyUIZ0IaHbk6gNvJJ-5" target="q2qVyUIZ0IaHbk6gNvJJ-7">
          <mxGeometry x="-0.0203" y="2" width="160" relative="1" as="geometry">
            <mxPoint x="380" y="230" as="sourcePoint" />
            <mxPoint x="563" y="110" as="targetPoint" />
            <mxPoint as="offset" />
          </mxGeometry>
        </mxCell>
        <mxCell id="lJtKsZQsu0vlG41G_ERD-22" value="&lt;font style=&quot;font-size: 13px;&quot;&gt;&amp;lt;&amp;lt;include&amp;gt;&amp;gt;&lt;/font&gt;" style="endArrow=open;endSize=12;dashed=1;html=1;rounded=0;exitX=0.946;exitY=0.245;exitDx=0;exitDy=0;entryX=0.013;entryY=0.646;entryDx=0;entryDy=0;exitPerimeter=0;entryPerimeter=0;" edge="1" parent="1" source="lJtKsZQsu0vlG41G_ERD-14" target="JiwREditaWVhdC1sXxD9-1">
          <mxGeometry width="160" relative="1" as="geometry">
            <mxPoint x="370" y="430" as="sourcePoint" />
            <mxPoint x="553" y="310" as="targetPoint" />
          </mxGeometry>
        </mxCell>
        <mxCell id="lJtKsZQsu0vlG41G_ERD-25" value="&lt;span style=&quot;font-size: 13px;&quot;&gt;&amp;lt;&amp;lt;include&amp;gt;&amp;gt;&lt;/span&gt;" style="endArrow=open;endSize=12;dashed=1;html=1;rounded=0;exitX=1;exitY=0.5;exitDx=0;exitDy=0;entryX=0;entryY=0.5;entryDx=0;entryDy=0;" edge="1" parent="1" source="q2qVyUIZ0IaHbk6gNvJJ-5" target="lJtKsZQsu0vlG41G_ERD-24">
          <mxGeometry x="-0.02" width="160" relative="1" as="geometry">
            <mxPoint x="590" y="236" as="sourcePoint" />
            <mxPoint x="738" y="200" as="targetPoint" />
            <mxPoint as="offset" />
          </mxGeometry>
        </mxCell>
        <mxCell id="lJtKsZQsu0vlG41G_ERD-26" value="MENAMBAHKAN DISKON" style="ellipse;whiteSpace=wrap;html=1;" vertex="1" parent="1">
          <mxGeometry x="176.88" y="190" width="131.25" height="70" as="geometry" />
        </mxCell>
        <mxCell id="lJtKsZQsu0vlG41G_ERD-28" value="MENGECEK PESANAN" style="ellipse;whiteSpace=wrap;html=1;" vertex="1" parent="1">
          <mxGeometry x="185" y="280" width="120" height="70" as="geometry" />
        </mxCell>
        <mxCell id="lJtKsZQsu0vlG41G_ERD-32" value="MENGELOLA AKUN PELANGGAN" style="ellipse;whiteSpace=wrap;html=1;" vertex="1" parent="1">
          <mxGeometry x="240" y="550" width="180" height="70" as="geometry" />
        </mxCell>
        <mxCell id="lJtKsZQsu0vlG41G_ERD-24" value="MENAMBAHKAN PRODUK BARU" style="ellipse;whiteSpace=wrap;html=1;" vertex="1" parent="1">
          <mxGeometry x="170" y="110" width="150" height="70" as="geometry" />
        </mxCell>
        <mxCell id="lJtKsZQsu0vlG41G_ERD-35" value="MENGELOLA PROFIL ADMIN" style="ellipse;whiteSpace=wrap;html=1;" vertex="1" parent="1">
          <mxGeometry x="240" y="640" width="180" height="50" as="geometry" />
        </mxCell>
        <mxCell id="lJtKsZQsu0vlG41G_ERD-52" value="&lt;span style=&quot;font-size: 13px;&quot;&gt;&amp;lt;&amp;lt;include&amp;gt;&amp;gt;&lt;/span&gt;" style="endArrow=open;endSize=12;dashed=1;html=1;rounded=0;exitX=1;exitY=1;exitDx=0;exitDy=0;entryX=0;entryY=0.5;entryDx=0;entryDy=0;" edge="1" parent="1" source="q2qVyUIZ0IaHbk6gNvJJ-5" target="lJtKsZQsu0vlG41G_ERD-26">
          <mxGeometry width="160" relative="1" as="geometry">
            <mxPoint x="77.5" y="250" as="sourcePoint" />
            <mxPoint x="100" y="250" as="targetPoint" />
          </mxGeometry>
        </mxCell>
        <mxCell id="lJtKsZQsu0vlG41G_ERD-54" value="" style="endArrow=none;html=1;rounded=0;entryX=0;entryY=0.5;entryDx=0;entryDy=0;" edge="1" parent="1" source="lJtKsZQsu0vlG41G_ERD-2" target="lJtKsZQsu0vlG41G_ERD-14">
          <mxGeometry width="50" height="50" relative="1" as="geometry">
            <mxPoint x="-240" y="480" as="sourcePoint" />
            <mxPoint x="-340" y="400" as="targetPoint" />
          </mxGeometry>
        </mxCell>
        <mxCell id="lJtKsZQsu0vlG41G_ERD-56" value="&lt;font style=&quot;font-size: 27px;&quot;&gt;&lt;b&gt;USECASE ADMIN&lt;/b&gt;&lt;/font&gt;" style="text;html=1;align=left;verticalAlign=middle;whiteSpace=wrap;rounded=0;" vertex="1" parent="1">
          <mxGeometry x="-490" y="60" width="260" height="30" as="geometry" />
        </mxCell>
        <mxCell id="lJtKsZQsu0vlG41G_ERD-57" value="TAMBAH / EDIT / HAPUS" style="ellipse;whiteSpace=wrap;html=1;" vertex="1" parent="1">
          <mxGeometry x="500" y="110" width="170" height="50" as="geometry" />
        </mxCell>
        <mxCell id="lJtKsZQsu0vlG41G_ERD-59" value="&lt;span style=&quot;font-size: 13px;&quot;&gt;&amp;lt;&amp;lt;extend&amp;gt;&amp;gt;&lt;/span&gt;" style="endArrow=open;endSize=12;dashed=1;html=1;rounded=0;exitX=1;exitY=0.5;exitDx=0;exitDy=0;entryX=0;entryY=0.5;entryDx=0;entryDy=0;" edge="1" parent="1" source="q2qVyUIZ0IaHbk6gNvJJ-7" target="lJtKsZQsu0vlG41G_ERD-57">
          <mxGeometry x="-0.0203" y="2" width="160" relative="1" as="geometry">
            <mxPoint x="360" y="181" as="sourcePoint" />
            <mxPoint x="512" y="110" as="targetPoint" />
            <mxPoint as="offset" />
          </mxGeometry>
        </mxCell>
        <mxCell id="lJtKsZQsu0vlG41G_ERD-60" value="&lt;span style=&quot;font-size: 13px;&quot;&gt;&amp;lt;&amp;lt;extend&amp;gt;&amp;gt;&lt;/span&gt;" style="endArrow=open;endSize=12;dashed=1;html=1;rounded=0;exitX=1;exitY=0.5;exitDx=0;exitDy=0;entryX=0;entryY=0.5;entryDx=0;entryDy=0;" edge="1" parent="1" source="lJtKsZQsu0vlG41G_ERD-24" target="lJtKsZQsu0vlG41G_ERD-57">
          <mxGeometry x="-0.0203" y="2" width="160" relative="1" as="geometry">
            <mxPoint x="340" y="120" as="sourcePoint" />
            <mxPoint x="450" y="160" as="targetPoint" />
            <mxPoint as="offset" />
          </mxGeometry>
        </mxCell>
        <mxCell id="lJtKsZQsu0vlG41G_ERD-61" value="&lt;span style=&quot;font-size: 13px;&quot;&gt;&amp;lt;&amp;lt;extend&amp;gt;&amp;gt;&lt;/span&gt;" style="endArrow=open;endSize=12;dashed=1;html=1;rounded=0;exitX=1;exitY=0.5;exitDx=0;exitDy=0;entryX=0;entryY=0.5;entryDx=0;entryDy=0;" edge="1" parent="1" source="lJtKsZQsu0vlG41G_ERD-26" target="lJtKsZQsu0vlG41G_ERD-57">
          <mxGeometry x="-0.0203" y="2" width="160" relative="1" as="geometry">
            <mxPoint x="340" y="240" as="sourcePoint" />
            <mxPoint x="445" y="200" as="targetPoint" />
            <mxPoint as="offset" />
          </mxGeometry>
        </mxCell>
        <mxCell id="lJtKsZQsu0vlG41G_ERD-62" value="&lt;span style=&quot;font-size: 13px;&quot;&gt;&amp;lt;&amp;lt;include&amp;gt;&amp;gt;&lt;/span&gt;" style="endArrow=open;endSize=12;dashed=1;html=1;rounded=0;exitX=0.959;exitY=0.287;exitDx=0;exitDy=0;entryX=0;entryY=0.5;entryDx=0;entryDy=0;exitPerimeter=0;" edge="1" parent="1" source="JiwREditaWVhdC1sXxD9-1" target="lJtKsZQsu0vlG41G_ERD-28">
          <mxGeometry width="160" relative="1" as="geometry">
            <mxPoint x="150" y="380" as="sourcePoint" />
            <mxPoint x="300" y="387" as="targetPoint" />
          </mxGeometry>
        </mxCell>
        <mxCell id="lJtKsZQsu0vlG41G_ERD-63" value="&lt;span style=&quot;font-size: 13px;&quot;&gt;&amp;lt;&amp;lt;extend&amp;gt;&amp;gt;&lt;/span&gt;" style="endArrow=open;endSize=12;dashed=1;html=1;rounded=0;exitX=1;exitY=0;exitDx=0;exitDy=0;entryX=0;entryY=0.5;entryDx=0;entryDy=0;" edge="1" parent="1" source="lJtKsZQsu0vlG41G_ERD-28" target="lJtKsZQsu0vlG41G_ERD-64">
          <mxGeometry x="-0.0203" y="2" width="160" relative="1" as="geometry">
            <mxPoint x="430" y="320" as="sourcePoint" />
            <mxPoint x="420" y="315" as="targetPoint" />
            <mxPoint as="offset" />
          </mxGeometry>
        </mxCell>
        <mxCell id="lJtKsZQsu0vlG41G_ERD-64" value="MENGUPDATE PESANAN" style="ellipse;whiteSpace=wrap;html=1;" vertex="1" parent="1">
          <mxGeometry x="615" y="250" width="110" height="50" as="geometry" />
        </mxCell>
        <mxCell id="lJtKsZQsu0vlG41G_ERD-65" value="MELIHAT DETAIL" style="ellipse;whiteSpace=wrap;html=1;" vertex="1" parent="1">
          <mxGeometry x="400" y="330" width="110" height="50" as="geometry" />
        </mxCell>
        <mxCell id="lJtKsZQsu0vlG41G_ERD-66" value="&lt;span style=&quot;font-size: 13px;&quot;&gt;&amp;lt;&amp;lt;include&amp;gt;&amp;gt;&lt;/span&gt;" style="endArrow=open;endSize=12;dashed=1;html=1;rounded=0;exitX=0.9;exitY=0.787;exitDx=0;exitDy=0;entryX=0;entryY=0.5;entryDx=0;entryDy=0;exitPerimeter=0;" edge="1" parent="1" source="lJtKsZQsu0vlG41G_ERD-28" target="lJtKsZQsu0vlG41G_ERD-65">
          <mxGeometry width="160" relative="1" as="geometry">
            <mxPoint x="370" y="381" as="sourcePoint" />
            <mxPoint x="490" y="360" as="targetPoint" />
          </mxGeometry>
        </mxCell>
        <mxCell id="lJtKsZQsu0vlG41G_ERD-67" value="&lt;span style=&quot;font-size: 13px;&quot;&gt;&amp;lt;&amp;lt;extend&amp;gt;&amp;gt;&lt;/span&gt;" style="endArrow=open;endSize=12;dashed=1;html=1;rounded=0;exitX=1;exitY=0.5;exitDx=0;exitDy=0;entryX=0;entryY=0.5;entryDx=0;entryDy=0;" edge="1" parent="1" source="lJtKsZQsu0vlG41G_ERD-65" target="lJtKsZQsu0vlG41G_ERD-68">
          <mxGeometry x="-0.0203" y="2" width="160" relative="1" as="geometry">
            <mxPoint x="640" y="406" as="sourcePoint" />
            <mxPoint x="640" y="355" as="targetPoint" />
            <mxPoint as="offset" />
          </mxGeometry>
        </mxCell>
        <mxCell id="lJtKsZQsu0vlG41G_ERD-68" value="MENCETAK INVOICE" style="ellipse;whiteSpace=wrap;html=1;" vertex="1" parent="1">
          <mxGeometry x="620" y="330" width="100" height="50" as="geometry" />
        </mxCell>
        <mxCell id="lJtKsZQsu0vlG41G_ERD-69" value="MENGELOLA&lt;div&gt;ULASAN&lt;/div&gt;" style="ellipse;whiteSpace=wrap;html=1;" vertex="1" parent="1">
          <mxGeometry x="176.88" y="380" width="120" height="70" as="geometry" />
        </mxCell>
        <mxCell id="lJtKsZQsu0vlG41G_ERD-72" value="&lt;span style=&quot;font-size: 13px;&quot;&gt;&amp;lt;&amp;lt;include&amp;gt;&amp;gt;&lt;/span&gt;" style="endArrow=open;endSize=12;dashed=1;html=1;rounded=0;exitX=1;exitY=1;exitDx=0;exitDy=0;entryX=0;entryY=0.5;entryDx=0;entryDy=0;" edge="1" parent="1" source="JiwREditaWVhdC1sXxD9-1" target="lJtKsZQsu0vlG41G_ERD-69">
          <mxGeometry width="160" relative="1" as="geometry">
            <mxPoint x="90" y="421" as="sourcePoint" />
            <mxPoint x="195" y="400" as="targetPoint" />
          </mxGeometry>
        </mxCell>
        <mxCell id="lJtKsZQsu0vlG41G_ERD-73" value="SETUJUI / TOLAK / HAPUS" style="ellipse;whiteSpace=wrap;html=1;" vertex="1" parent="1">
          <mxGeometry x="430" y="430" width="175" height="70" as="geometry" />
        </mxCell>
        <mxCell id="lJtKsZQsu0vlG41G_ERD-74" value="&lt;span style=&quot;font-size: 13px;&quot;&gt;&amp;lt;&amp;lt;extend&amp;gt;&amp;gt;&lt;/span&gt;" style="endArrow=open;endSize=12;dashed=1;html=1;rounded=0;entryX=0.033;entryY=0.351;entryDx=0;entryDy=0;exitX=0.972;exitY=0.652;exitDx=0;exitDy=0;exitPerimeter=0;entryPerimeter=0;" edge="1" parent="1" source="lJtKsZQsu0vlG41G_ERD-69" target="lJtKsZQsu0vlG41G_ERD-73">
          <mxGeometry x="-0.0203" y="2" width="160" relative="1" as="geometry">
            <mxPoint x="320" y="430" as="sourcePoint" />
            <mxPoint x="657" y="410" as="targetPoint" />
            <mxPoint as="offset" />
          </mxGeometry>
        </mxCell>
        <mxCell id="lJtKsZQsu0vlG41G_ERD-75" value="&lt;span style=&quot;font-size: 13px;&quot;&gt;&amp;lt;&amp;lt;include&amp;gt;&amp;gt;&lt;/span&gt;" style="endArrow=open;endSize=12;dashed=1;html=1;rounded=0;exitX=1;exitY=0.5;exitDx=0;exitDy=0;entryX=0;entryY=0.5;entryDx=0;entryDy=0;" edge="1" parent="1" source="JiwREditaWVhdC1sXxD9-2" target="lJtKsZQsu0vlG41G_ERD-32">
          <mxGeometry width="160" relative="1" as="geometry">
            <mxPoint x="190" y="590" as="sourcePoint" />
            <mxPoint x="306" y="618" as="targetPoint" />
          </mxGeometry>
        </mxCell>
        <mxCell id="lJtKsZQsu0vlG41G_ERD-76" value="&lt;span style=&quot;font-size: 13px;&quot;&gt;&amp;lt;&amp;lt;include&amp;gt;&amp;gt;&lt;/span&gt;" style="endArrow=open;endSize=12;dashed=1;html=1;rounded=0;exitX=1;exitY=1;exitDx=0;exitDy=0;entryX=0;entryY=0.5;entryDx=0;entryDy=0;" edge="1" parent="1" source="JiwREditaWVhdC1sXxD9-2" target="lJtKsZQsu0vlG41G_ERD-35">
          <mxGeometry width="160" relative="1" as="geometry">
            <mxPoint x="100" y="630" as="sourcePoint" />
            <mxPoint x="230" y="662" as="targetPoint" />
          </mxGeometry>
        </mxCell>
        <mxCell id="lJtKsZQsu0vlG41G_ERD-77" value="&lt;span style=&quot;font-size: 13px;&quot;&gt;&amp;lt;&amp;lt;extend&amp;gt;&amp;gt;&lt;/span&gt;" style="endArrow=open;endSize=12;dashed=1;html=1;rounded=0;exitX=0.975;exitY=0.31;exitDx=0;exitDy=0;exitPerimeter=0;entryX=0;entryY=0.5;entryDx=0;entryDy=0;" edge="1" parent="1" source="lJtKsZQsu0vlG41G_ERD-32" target="lJtKsZQsu0vlG41G_ERD-78">
          <mxGeometry x="-0.0203" y="2" width="160" relative="1" as="geometry">
            <mxPoint x="530" y="570" as="sourcePoint" />
            <mxPoint x="520" y="550" as="targetPoint" />
            <mxPoint as="offset" />
          </mxGeometry>
        </mxCell>
        <mxCell id="lJtKsZQsu0vlG41G_ERD-78" value="MELIHAT DETAIL" style="ellipse;whiteSpace=wrap;html=1;" vertex="1" parent="1">
          <mxGeometry x="530" y="525" width="110" height="50" as="geometry" />
        </mxCell>
        <mxCell id="lJtKsZQsu0vlG41G_ERD-79" value="&lt;span style=&quot;font-size: 13px;&quot;&gt;&amp;lt;&amp;lt;extend&amp;gt;&amp;gt;&lt;/span&gt;" style="endArrow=open;endSize=12;dashed=1;html=1;rounded=0;exitX=0.954;exitY=0.789;exitDx=0;exitDy=0;exitPerimeter=0;entryX=0;entryY=0.5;entryDx=0;entryDy=0;" edge="1" parent="1" source="lJtKsZQsu0vlG41G_ERD-32" target="lJtKsZQsu0vlG41G_ERD-80">
          <mxGeometry x="-0.0203" y="2" width="160" relative="1" as="geometry">
            <mxPoint x="490" y="652" as="sourcePoint" />
            <mxPoint x="530" y="610" as="targetPoint" />
            <mxPoint as="offset" />
          </mxGeometry>
        </mxCell>
        <mxCell id="lJtKsZQsu0vlG41G_ERD-80" value="MENGHAPUS AKUN" style="ellipse;whiteSpace=wrap;html=1;" vertex="1" parent="1">
          <mxGeometry x="530" y="600" width="110" height="50" as="geometry" />
        </mxCell>
      </root>
    </mxGraphModel>
  </diagram>
</mxfile>
